<svg version="1.2" xmlns="http://www.w3.org/2000/svg" viewBox="0 0 37 37" width="37" height="37"><defs><clipPath clipPathUnits="userSpaceOnUse" id="cp1"><path d="m-873-1381h1092v1528h-1092z" /></clipPath></defs><style>.s0{fill:#ffffff}</style><g clip-path="url(#cp1)"><path fill-rule="evenodd" class="s0" d="m19 0.3c9.9 0 18 8 18 18c0 9.9-8.1 18-18 18c-9.9 0-18-8.1-18-18c0-10 8.1-18 18-18zm-3.3 27.8h4.3v-10.3h3.2l0.4-3.7h-3.6v-2.2c0-0.8 0.3-0.9 0.7-0.9h2.9v-3.5h-3.4c-3.8 0-4.5 2.6-4.5 4.3v2.3h-2.4v3.7h2.4z" /></g></svg>