<svg version="1.2" xmlns="http://www.w3.org/2000/svg" viewBox="0 0 37 37" width="37" height="37"><defs><clipPath clipPathUnits="userSpaceOnUse" id="cp1"><path d="m-985-1381h1092v1528h-1092z" /></clipPath></defs><style>.s0{fill:#ffffff}</style><g clip-path="url(#cp1)"><path fill-rule="evenodd" class="s0" d="m1 18.3c0-10 8.1-18 18-18c9.9 0 18 8 18 18c0 9.9-8.1 18-18 18c-9.9 0-18-8.1-18-18zm10.9-10.2c-0.7 0.2-1.3 0.6-1.9 1.2c-0.6 0.6-1 1.2-1.2 1.9c-0.3 0.7-0.5 1.5-0.5 2.6c-0.1 1.2-0.1 1.6-0.1 4.5c0 2.9 0 3.3 0.1 4.4c0 1.2 0.2 2 0.5 2.7c0.2 0.7 0.6 1.3 1.2 1.9c0.6 0.6 1.2 0.9 1.9 1.2c0.7 0.3 1.5 0.5 2.6 0.5c1.2 0.1 1.6 0.1 4.5 0.1c2.9 0 3.3 0 4.5-0.1c1.1 0 1.9-0.2 2.6-0.5c0.7-0.3 1.3-0.6 1.9-1.2c0.6-0.6 1-1.2 1.2-1.9c0.3-0.7 0.5-1.5 0.5-2.7c0.1-1.1 0.1-1.5 0.1-4.4c0-2.9 0-3.3-0.1-4.5c0-1.1-0.2-1.9-0.5-2.6c-0.2-0.7-0.6-1.3-1.2-1.9c-0.6-0.6-1.2-1-1.9-1.2c-0.7-0.3-1.5-0.5-2.6-0.5c-1.2-0.1-1.6-0.1-4.5-0.1c-2.9 0-3.3 0-4.5 0.1c-1.1 0-1.9 0.2-2.6 0.5zm0.7 18.6c-0.5-0.2-0.8-0.4-1.2-0.8c-0.4-0.4-0.6-0.7-0.8-1.2c-0.2-0.4-0.3-1-0.4-2c0-1.2-0.1-1.5-0.1-4.4c0-2.9 0.1-3.2 0.1-4.4c0.1-1 0.2-1.6 0.4-2c0.2-0.5 0.4-0.8 0.8-1.2c0.4-0.4 0.7-0.6 1.2-0.8c0.4-0.2 1-0.4 2-0.4c1.2-0.1 1.5-0.1 4.4-0.1c2.9 0 3.2 0 4.4 0.1c1 0 1.6 0.2 2 0.4c0.5 0.2 0.8 0.4 1.2 0.8c0.4 0.4 0.6 0.7 0.8 1.2c0.2 0.4 0.3 1 0.4 2c0 1.2 0.1 1.5 0.1 4.4c0 2.9-0.1 3.2-0.1 4.4c-0.1 1-0.2 1.6-0.4 2c-0.2 0.5-0.4 0.8-0.8 1.2c-0.4 0.4-0.7 0.6-1.2 0.8c-0.4 0.2-1 0.3-2 0.4c-1.2 0-1.5 0-4.4 0c-2.9 0-3.2 0-4.4 0c-1-0.1-1.6-0.2-2-0.4zm12.2-12.9c0.7 0 1.3-0.6 1.3-1.3c0-0.7-0.6-1.3-1.3-1.3c-0.8 0-1.3 0.6-1.3 1.3c0 0.7 0.5 1.3 1.3 1.3zm-5.8 10c3.1 0 5.5-2.4 5.5-5.5c0-3.1-2.4-5.6-5.5-5.6c-3.1 0-5.5 2.5-5.5 5.6c0 3.1 2.4 5.5 5.5 5.5zm0-9.1c2 0 3.6 1.6 3.6 3.6c0 2-1.6 3.6-3.6 3.6c-2 0-3.6-1.6-3.6-3.6c0-2 1.6-3.6 3.6-3.6z" /></g></svg>