<svg version="1.2" xmlns="http://www.w3.org/2000/svg" viewBox="0 0 36 37" width="36" height="37"><defs><clipPath clipPathUnits="userSpaceOnUse" id="cp1"><path d="m-930-1381h1092v1528h-1092z" /></clipPath></defs><style>.s0{fill:#ffffff}</style><g clip-path="url(#cp1)"><path fill-rule="evenodd" class="s0" d="m18 0.3c9.9 0 18 8 18 18c0 9.9-8.1 18-18 18c-9.9 0-18-8.1-18-18c0-10 8.1-18 18-18zm7.9 10.7c-0.8-0.9-1.9-1.5-3.1-1.5c-2.4 0-4.3 2.1-4.3 4.6q0 0.5 0.1 1c-3.6-0.2-6.8-2-8.9-4.7c-0.4 0.6-0.6 1.4-0.6 2.3c0 1.5 0.8 2.9 1.9 3.7q-1 0-1.9-0.5c0 2.2 1.5 4.1 3.4 4.5q-0.5 0.1-1.1 0.1q-0.4 0-0.8 0c0.5 1.8 2.1 3.1 4 3.1c-1.5 1.2-3.3 2-5.3 2q-0.6 0-1.1-0.1c1.9 1.3 4.2 2 6.6 2c8 0 12.3-6.9 12.3-12.9q0-0.3 0-0.6c0.8-0.6 1.6-1.4 2.1-2.3q-1.1 0.5-2.4 0.7c0.8-0.6 1.5-1.5 1.8-2.5q-1.2 0.8-2.7 1.1z" /></g></svg>