<svg version="1.2" xmlns="http://www.w3.org/2000/svg" viewBox="0 0 21 19" width="21" height="19"><defs><clipPath clipPathUnits="userSpaceOnUse" id="cp1"><path d="m-93-637h1092v1528h-1092z" /></clipPath></defs><style>.s0{fill:#969696}</style><g clip-path="url(#cp1)"><path fill-rule="evenodd" class="s0" d="m18 15.1c0 0.6-0.4 1-1 1h-1v-10h1c0.6 0 1 0.5 1 1zm-16-8c0-0.5 0.5-1 1-1h1v10h-1c-0.5 0-1-0.4-1-1zm4-1h8v10h-8zm6-2h-4c0-1.1 0.9-2 2-2c1.1 0 2 0.9 2 2zm2 0c0-2.2-1.8-4-4-4c-2.2 0-4 1.8-4 4h-3c-1.6 0-3 1.4-3 3v8c0 1.7 1.4 3 3 3h14c1.7 0 3-1.3 3-3v-8c0-1.6-1.3-3-3-3z" /></g></svg>