<svg version="1.2" xmlns="http://www.w3.org/2000/svg" viewBox="0 0 21 19" width="21" height="19"><defs><clipPath clipPathUnits="userSpaceOnUse" id="cp1"><path d="m-285-607h1092v1528h-1092z" /></clipPath></defs><style>.s0{fill:#969696}</style><g clip-path="url(#cp1)"><path fill-rule="evenodd" class="s0" d="m20.1 6v9.1c0 1.6-1.3 3-3 3.1c-1.8 0-3-1.1-3.4-3.3l-1-5.2h-2.2v8h-10.5v-17h10.5v7h3.8l1.3 6.8c0.2 1.5 0.9 1.7 1.4 1.7c0.3 0 0.6-0.2 0.8-0.4c0.2-0.2 0.2-0.5 0.2-0.7v-8.3l-4-4l1.5-1.4zm-11.6-3.3h-6.5v5h6.5z" /></g></svg>